<svg width="38" height="38" viewBox="0 0 38 38" fill="none" xmlns="http://www.w3.org/2000/svg">
<path d="M3.5625 14.25C3.5625 5.9375 11.875 5.9375 19 5.9375C26.125 5.9375 34.4375 5.9375 34.4375 14.25C34.4375 23.75 26.125 13.0625 26.125 13.0625H11.875C11.875 13.0625 3.5625 23.75 3.5625 14.25ZM13.0625 16.625C13.0625 16.625 7.125 22.5625 7.125 33.25H30.875C30.875 22.5625 24.9375 16.625 24.9375 16.625H13.0625Z" stroke="white" stroke-width="3" stroke-linecap="round" stroke-linejoin="round"/>
<path d="M19 29.6875C21.6234 29.6875 23.75 27.5609 23.75 24.9375C23.75 22.3141 21.6234 20.1875 19 20.1875C16.3766 20.1875 14.25 22.3141 14.25 24.9375C14.25 27.5609 16.3766 29.6875 19 29.6875Z" stroke="white" stroke-width="3" stroke-linecap="round" stroke-linejoin="round"/>
</svg>
