<svg width="42" height="42" viewBox="0 0 42 42" fill="none" xmlns="http://www.w3.org/2000/svg">
<path d="M9.1875 7H32.8125C34.2652 6.9999 35.6629 7.55572 36.7189 8.55343C37.7749 9.55113 38.409 10.9151 38.4913 12.3655L38.5 12.6875V29.3125C38.5001 30.7652 37.9443 32.163 36.9466 33.2189C35.9489 34.2749 34.5849 34.909 33.1345 34.9913L32.8125 35H9.1875C7.73476 35.0001 6.33705 34.4443 5.2811 33.4466C4.22514 32.4489 3.591 31.0849 3.50875 29.6345L3.5 29.3125V12.6875C3.4999 11.2348 4.05572 9.83705 5.05343 8.7811C6.05113 7.72514 7.41509 7.091 8.8655 7.00875L9.1875 7H32.8125H9.1875ZM35.875 16.4028L21.6125 23.9102C21.4515 23.9953 21.2745 24.0459 21.0928 24.0589C20.9111 24.0719 20.7287 24.0469 20.5572 23.9855L20.3892 23.912L6.125 16.4045V29.3125C6.12503 30.0811 6.41405 30.8216 6.93469 31.3869C7.45533 31.9523 8.16952 32.3013 8.9355 32.3645L9.1875 32.375H32.8125C33.5814 32.3749 34.3221 32.0857 34.8875 31.5647C35.4529 31.0437 35.8017 30.329 35.8645 29.5627L35.875 29.3125V16.4028ZM32.8125 9.625H9.1875C8.41892 9.62503 7.67844 9.91405 7.11307 10.4347C6.54769 10.9553 6.19874 11.6695 6.1355 12.4355L6.125 12.6875V13.4382L21 21.266L35.875 13.4365V12.6875C35.8749 11.9186 35.5857 11.1779 35.0647 10.6125C34.5437 10.0471 33.829 9.69833 33.0627 9.6355L32.8125 9.625Z" fill="white"/>
</svg>
