<svg width="34" height="25" viewBox="0 0 34 25" fill="none" xmlns="http://www.w3.org/2000/svg">
<path d="M31.8608 25H2.13977C1.56481 25 1.06725 24.7938 0.64709 24.3815C0.226927 23.9692 0.0168457 23.4809 0.0168457 22.9167V2.08333C0.0168457 1.4974 0.226927 1.00369 0.64709 0.602214C1.06725 0.200738 1.56481 0 2.13977 0H31.8608C32.4357 0 32.9333 0.200738 33.3534 0.602214C33.7736 1.00369 33.9837 1.4974 33.9837 2.08333V22.9167C33.9837 23.4809 33.7736 23.9692 33.3534 24.3815C32.9333 24.7938 32.4357 25 31.8608 25ZM5.32416 20.8333H13.8159C14.1034 20.8333 14.3521 20.7303 14.5622 20.5241C14.7723 20.3179 14.8773 20.0738 14.8773 19.7917C14.8773 19.5095 14.7723 19.2654 14.5622 19.0592C14.3521 18.8531 14.1034 18.75 13.8159 18.75H5.32416C5.03668 18.75 4.7879 18.8531 4.57782 19.0592C4.36774 19.2654 4.2627 19.5095 4.2627 19.7917C4.2627 20.0738 4.36774 20.3179 4.57782 20.5241C4.7879 20.7303 5.03668 20.8333 5.32416 20.8333ZM15.9388 10.4167H5.32416C5.03668 10.4167 4.7879 10.5197 4.57782 10.7259C4.36774 10.9321 4.2627 11.1762 4.2627 11.4583C4.2627 11.7405 4.36774 11.9846 4.57782 12.1908C4.7879 12.3969 5.03668 12.5 5.32416 12.5H15.9388C16.2263 12.5 16.4751 12.3969 16.6851 12.1908C16.8952 11.9846 17.0003 11.7405 17.0003 11.4583C17.0003 11.1762 16.8952 10.9321 16.6851 10.7259C16.4751 10.5197 16.2263 10.4167 15.9388 10.4167ZM15.9388 14.5833H5.32416C5.03668 14.5833 4.7879 14.6864 4.57782 14.8926C4.36774 15.0987 4.2627 15.3429 4.2627 15.625C4.2627 15.9071 4.36774 16.1513 4.57782 16.3574C4.7879 16.5636 5.03668 16.6667 5.32416 16.6667H15.9388C16.2263 16.6667 16.4751 16.5636 16.6851 16.3574C16.8952 16.1513 17.0003 15.9071 17.0003 15.625C17.0003 15.3429 16.8952 15.0987 16.6851 14.8926C16.4751 14.6864 16.2263 14.5833 15.9388 14.5833ZM29.7378 5.20833C29.7378 4.92622 29.6328 4.68207 29.4227 4.47591C29.2126 4.26975 28.9638 4.16667 28.6764 4.16667H22.3076C22.0201 4.16667 21.7713 4.26975 21.5612 4.47591C21.3512 4.68207 21.2461 4.92622 21.2461 5.20833V11.4583C21.2461 11.7405 21.3512 11.9846 21.5612 12.1908C21.7713 12.3969 22.0201 12.5 22.3076 12.5H28.6764C28.9638 12.5 29.2126 12.3969 29.4227 12.1908C29.6328 11.9846 29.7378 11.7405 29.7378 11.4583V5.20833Z" fill="white"/>
</svg>
