<svg width="178" height="117" viewBox="0 0 178 117" fill="none" xmlns="http://www.w3.org/2000/svg">
<path d="M53.3627 58.5C70.5666 58.5 84.4909 45.4158 84.4909 29.25C84.4909 13.0842 70.5666 0 53.3627 0C36.1588 0 22.2345 13.0842 22.2345 29.25C22.2345 45.4158 36.1588 58.5 53.3627 58.5ZM74.7078 66.8571H72.4009C66.62 69.4687 60.1998 71.0357 53.3627 71.0357C46.5256 71.0357 40.1332 69.4687 34.3244 66.8571H32.0176C14.3412 66.8571 0 80.333 0 96.9429V104.464C0 111.385 5.97551 117 13.3407 117H93.3847C100.75 117 106.725 111.385 106.725 104.464V96.9429C106.725 80.333 92.3842 66.8571 74.7078 66.8571ZM133.407 58.5C148.137 58.5 160.088 47.2701 160.088 33.4286C160.088 19.5871 148.137 8.35714 133.407 8.35714C118.676 8.35714 106.725 19.5871 106.725 33.4286C106.725 47.2701 118.676 58.5 133.407 58.5ZM146.747 66.8571H145.691C141.828 68.1107 137.742 68.9464 133.407 68.9464C129.071 68.9464 124.985 68.1107 121.122 66.8571H120.066C114.396 66.8571 109.171 68.398 104.585 70.879C111.367 77.7475 115.619 86.8621 115.619 96.9429V106.971C115.619 107.546 115.48 108.094 115.452 108.643H164.535C171.9 108.643 177.876 103.028 177.876 96.1071C177.876 79.9413 163.951 66.8571 146.747 66.8571Z" fill="#4C99E0"/>
</svg>
