<svg width="181" height="118" viewBox="0 0 181 118" fill="none" xmlns="http://www.w3.org/2000/svg">
<path d="M117.152 50.25H180.234V67H117.152V50.25ZM126.164 83.75H180.234V100.5H126.164V83.75ZM108.14 16.75H180.234V33.5H108.14V16.75ZM18.0234 117.25H108.14V108.875C108.14 85.7851 87.9271 67 63.0819 67H45.0585C20.2132 67 0 85.7851 0 108.875V117.25H18.0234ZM54.0702 58.625C72.0485 58.625 85.6111 46.0206 85.6111 29.3125C85.6111 12.6044 72.0485 0 54.0702 0C36.0918 0 22.5292 12.6044 22.5292 29.3125C22.5292 46.0206 36.0918 58.625 54.0702 58.625Z" fill="#4C99E0"/>
</svg>
